<svg width="666" height="162" viewBox="0 0 666 162" fill="none" xmlns="http://www.w3.org/2000/svg">
<path d="M627.393 133.468C627.393 131.488 627.69 129.706 628.284 128.122C628.944 126.538 629.736 125.119 630.66 123.865C631.65 122.611 632.673 121.489 633.729 120.499C634.851 119.443 635.874 118.453 636.798 117.529C637.788 116.605 638.58 115.681 639.174 114.757C639.834 113.833 640.164 112.876 640.164 111.886C640.164 110.368 639.504 109.213 638.184 108.421C636.93 107.629 635.379 107.233 633.531 107.233C631.419 107.233 629.439 107.827 627.591 109.015C625.743 110.203 624.291 111.853 623.235 113.965L605.613 105.154C608.121 100.402 611.916 96.541 616.998 93.571C622.08 90.601 628.581 89.116 636.501 89.116C641.715 89.116 646.335 89.842 650.361 91.294C654.453 92.68 657.687 94.792 660.063 97.63C662.439 100.402 663.627 103.867 663.627 108.025C663.627 110.533 663.231 112.744 662.439 114.658C661.713 116.572 660.723 118.255 659.469 119.707C658.281 121.093 657.027 122.38 655.707 123.568C654.387 124.756 653.1 125.878 651.846 126.934C650.658 127.924 649.668 128.947 648.876 130.003C648.15 131.059 647.787 132.214 647.787 133.468H627.393ZM637.59 160.99C633.762 160.99 630.627 159.835 628.185 157.525C625.743 155.149 624.522 152.344 624.522 149.11C624.522 145.81 625.743 143.038 628.185 140.794C630.627 138.55 633.762 137.428 637.59 137.428C641.484 137.428 644.619 138.55 646.995 140.794C649.437 143.038 650.658 145.81 650.658 149.11C650.658 152.344 649.437 155.149 646.995 157.525C644.619 159.835 641.484 160.99 637.59 160.99Z" fill="#212122"/>
<path d="M579.429 111.985C587.877 111.985 594.477 113.899 599.229 117.727C604.047 121.489 606.456 127.198 606.456 134.854C606.456 143.104 603.75 149.374 598.338 153.664C592.926 157.888 585.633 160 576.459 160H542.106V90.7H565.074V111.985H579.429ZM574.875 143.665C577.185 143.665 579.099 142.939 580.617 141.487C582.201 139.969 582.993 137.89 582.993 135.25C582.993 132.61 582.201 130.795 580.617 129.805C579.099 128.815 577.185 128.32 574.875 128.32H565.074V143.665H574.875Z" fill="#212122"/>
<path d="M489.138 160V103.768L494.187 108.817H468.843V90.7H532.401V108.817H507.057L512.106 103.768V160H489.138Z" fill="#212122"/>
<path d="M384.925 160L415.219 90.7H438.187L468.481 160H444.325L421.951 101.788H431.059L408.685 160H384.925ZM402.943 147.922L408.883 131.092H440.761L446.701 147.922H402.943Z" fill="#212122"/>
<path d="M341.278 160V103.768L346.327 108.817H320.983V90.7H384.541V108.817H359.197L364.246 103.768V160H341.278Z" fill="#212122"/>
<path d="M242.423 160V90.7H265.391V126.736L289.25 90.7H311.228V160H288.26V124.063L264.5 160H242.423Z" fill="#212122"/>
<path d="M208.283 136.735C205.313 137.791 202.541 138.583 199.967 139.111C197.459 139.639 195.017 139.903 192.641 139.903C182.477 139.903 174.722 137.494 169.376 132.676C164.096 127.858 161.456 120.829 161.456 111.589V90.7H184.424V109.015C184.424 113.239 185.348 116.374 187.196 118.42C189.044 120.4 191.849 121.39 195.611 121.39C198.185 121.39 200.495 121.159 202.541 120.697C204.587 120.169 206.303 119.443 207.689 118.519L208.283 136.735ZM205.214 160V90.7H228.182V160H205.214Z" fill="#212122"/>
<path d="M116.659 161.584C111.049 161.584 105.835 160.693 101.017 158.911C96.2653 157.129 92.1403 154.621 88.6423 151.387C85.1443 148.087 82.4053 144.226 80.4253 139.804C78.5113 135.382 77.5543 130.564 77.5543 125.35C77.5543 120.07 78.5113 115.252 80.4253 110.896C82.4053 106.474 85.1443 102.646 88.6423 99.412C92.1403 96.112 96.2653 93.571 101.017 91.789C105.835 90.007 111.049 89.116 116.659 89.116C122.335 89.116 127.549 90.007 132.301 91.789C137.053 93.571 141.178 96.112 144.676 99.412C148.174 102.646 150.88 106.474 152.794 110.896C154.774 115.252 155.764 120.07 155.764 125.35C155.764 130.564 154.774 135.382 152.794 139.804C150.88 144.226 148.174 148.087 144.676 151.387C141.178 154.621 137.053 157.129 132.301 158.911C127.549 160.693 122.335 161.584 116.659 161.584ZM116.659 142.675C118.837 142.675 120.85 142.279 122.698 141.487C124.612 140.695 126.262 139.573 127.648 138.121C129.1 136.603 130.222 134.788 131.014 132.676C131.806 130.498 132.202 128.056 132.202 125.35C132.202 122.644 131.806 120.235 131.014 118.123C130.222 115.945 129.1 114.13 127.648 112.678C126.262 111.16 124.612 110.005 122.698 109.213C120.85 108.421 118.837 108.025 116.659 108.025C114.481 108.025 112.435 108.421 110.521 109.213C108.673 110.005 107.023 111.16 105.571 112.678C104.185 114.13 103.096 115.945 102.304 118.123C101.512 120.235 101.116 122.644 101.116 125.35C101.116 128.056 101.512 130.498 102.304 132.676C103.096 134.788 104.185 136.603 105.571 138.121C107.023 139.573 108.673 140.695 110.521 141.487C112.435 142.279 114.481 142.675 116.659 142.675Z" fill="#212122"/>
<path d="M0.137939 160V90.7H67.1609V160H44.1929V103.867L49.2419 108.817H18.0569L23.1059 103.867V160H0.137939Z" fill="#212122"/>
<path d="M638.18 22.985C646.628 22.985 653.228 24.899 657.98 28.727C662.798 32.489 665.207 38.198 665.207 45.854C665.207 54.104 662.501 60.374 657.089 64.664C651.677 68.888 644.384 71 635.21 71H600.857V1.69995H623.825V22.985H638.18ZM633.626 54.665C635.936 54.665 637.85 53.939 639.368 52.487C640.952 50.969 641.744 48.89 641.744 46.25C641.744 43.61 640.952 41.795 639.368 40.805C637.85 39.815 635.936 39.32 633.626 39.32H623.825V54.665H633.626Z" fill="#212122"/>
<path d="M531.875 52.883L526.826 57.932V1.69995H549.794V57.932L544.646 52.883H568.802L563.654 57.932V1.69995H586.622V71H489.899V1.69995H512.867V57.932L507.818 52.883H531.875Z" fill="#212122"/>
<path d="M442.187 27.44H473.075V44.27H442.187V27.44ZM443.771 53.378H478.421V71H420.803V1.69995H477.134V19.322H443.771V53.378Z" fill="#212122"/>
<path d="M328.851 71L359.145 1.69995H382.113L412.407 71H388.251L365.877 12.788H374.985L352.611 71H328.851ZM346.869 58.922L352.809 42.092H384.687L390.627 58.922H346.869Z" fill="#212122"/>
<path d="M297.007 1.69995H320.371V71H297.007V1.69995ZM275.425 71H252.061V1.69995H275.425V71ZM298.591 45.458H273.841V26.252H298.591V45.458Z" fill="#212122"/>
<path d="M178.694 66.4459L185.525 50.3089C188.429 51.4969 191.399 52.4209 194.435 53.0809C197.537 53.7409 200.507 54.1699 203.345 54.3679C206.183 54.4999 208.691 54.3679 210.869 53.9719C213.113 53.5759 214.895 52.9159 216.215 51.9919C217.535 51.0679 218.195 49.8469 218.195 48.3289C218.195 46.7449 217.535 45.6559 216.215 45.0619C214.895 44.4679 213.278 44.1709 211.364 44.1709H192.653V27.3409H209.384C211.364 27.3409 212.849 26.9779 213.839 26.2519C214.895 25.4599 215.423 24.4369 215.423 23.1829C215.423 21.7969 214.829 20.7079 213.641 19.9159C212.519 19.1239 210.968 18.5959 208.988 18.3319C207.074 18.0019 204.896 17.9689 202.454 18.2329C200.012 18.4309 197.471 18.9259 194.831 19.7179C192.257 20.4439 189.749 21.4009 187.307 22.5889L180.476 5.56092C185.36 3.31692 190.475 1.79892 195.821 1.00692C201.233 0.148919 206.48 -0.0160807 211.562 0.51192C216.71 0.973918 221.33 2.06292 225.422 3.77892C229.58 5.49492 232.88 7.77192 235.322 10.6099C237.764 13.3819 238.985 16.6819 238.985 20.5099C238.985 23.8099 238.094 26.7799 236.312 29.4199C234.53 31.9939 232.088 34.0069 228.986 35.4589C225.95 36.9109 222.485 37.6369 218.591 37.6369L219.086 32.9839C223.64 32.9839 227.6 33.8089 230.966 35.4589C234.398 37.0429 237.038 39.2209 238.886 41.9929C240.8 44.7649 241.757 47.9329 241.757 51.4969C241.757 54.7969 240.866 57.7669 239.084 60.4069C237.302 62.9809 234.827 65.1919 231.659 67.0399C228.557 68.8219 224.927 70.1749 220.769 71.0989C216.677 72.0229 212.255 72.4849 207.503 72.4849C202.817 72.5509 197.999 72.0559 193.049 70.9999C188.165 70.0099 183.38 68.4919 178.694 66.4459Z" fill="#212122"/>
<path d="M104.153 27.44H135.041V44.27H104.153V27.44ZM105.737 53.378H140.387V71H82.7688V1.69995H139.1V19.322H105.737V53.378Z" fill="#212122"/>
<path d="M45.0839 1.69995H68.4479V71H45.0839V1.69995ZM23.5019 71H0.137939V1.69995H23.5019V71ZM46.6679 45.458H21.9179V26.252H46.6679V45.458Z" fill="#212122"/>
<path d="M379 106V99H372V64H379V57H414V64H421V99H414V106H379ZM386 99H407V64H386V99Z" fill="#77F1DF"/>
<path d="M322 106V64H308V57H350V64H336V106H322Z" fill="#77F1DF"/>
<path d="M270 106V85H242V78H235V57H249V78H270V57H284V106H270Z" fill="#77F1DF"/>
<path fill-rule="evenodd" clip-rule="evenodd" d="M372 113V106H365V57H372V50H421V57L428 57V106H421V113H372ZM386 99H407V64H386V99ZM393 71V92H400V71H393ZM379 99V106H414V99H421V64H414V57H379V64H372V99H379Z" fill="#212122"/>
<path fill-rule="evenodd" clip-rule="evenodd" d="M315 113V71H301V50H357V71H343V113H315ZM336 64H350V57H308V64H322V106H336V64Z" fill="#212122"/>
<path fill-rule="evenodd" clip-rule="evenodd" d="M263 113V92H235V85H228V50H256V71H263V50H291V113H263ZM270 78H249V57H235V78H242V85H270V106H284V57H270V78Z" fill="#212122"/>
</svg>
