<svg width="147" height="50" viewBox="0 0 147 50" fill="none" xmlns="http://www.w3.org/2000/svg">
<g clip-path="url(#clip0_10_3363)">
<path fill-rule="evenodd" clip-rule="evenodd" d="M114.504 24.8345C114.506 27.9933 113.417 31.0587 111.417 33.5263C109.416 35.9938 106.623 37.7164 103.497 38.4106H103.083C99.4308 38.4106 95.9277 36.9803 93.3449 34.4343C90.7621 31.8882 89.3112 28.4351 89.3112 24.8345C89.3112 21.2338 90.7621 17.7807 93.3449 15.2347C95.9277 12.6886 99.4308 11.2583 103.083 11.2583H103.497C106.623 11.9525 109.416 13.6751 111.417 16.1426C113.417 18.6102 114.506 21.6756 114.504 24.8345Z" fill="#77F1DF"/>
<path fill-rule="evenodd" clip-rule="evenodd" d="M81.2494 24.8345C81.2514 27.9933 80.1625 31.0587 78.1618 33.5263C76.1611 35.9938 73.3678 37.7164 70.2417 38.4106H69.8285C66.1759 38.4106 62.6729 36.9803 60.0901 34.4343C57.5073 31.8882 56.0563 28.4351 56.0563 24.8345C56.0563 21.2338 57.5073 17.7807 60.0901 15.2347C62.6729 12.6886 66.1759 11.2583 69.8285 11.2583H70.2417C73.3678 11.9525 76.1611 13.6751 78.1618 16.1426C80.1625 18.6102 81.2514 21.6756 81.2494 24.8345Z" fill="#77F1DF"/>
<path d="M15.22 23.7582C18.3171 24.8344 19.9932 26.8212 19.9932 30.0728C19.9932 35.2019 15.9959 36.6953 10.1914 36.6953C3.13738 36.6854 0 34.4834 0 29.3112L4.12831 28.7185C4.12831 34.1854 5.11588 36.0496 10.7927 36.0496C16.7685 36.0496 17.4571 34.0165 17.4571 32.0761C17.4571 28.3046 14.706 27.245 9.76148 26.447C3.61101 25.4536 0.816256 24.0563 0.816256 20.2417C0.816256 16.4271 3.52703 14.351 8.77055 14.351C15.6499 14.351 18.2297 17.9933 18.2297 23.3344L15.22 23.7582ZM9.76148 22.5728C11.0808 22.7389 12.3872 22.9933 13.6715 23.3344L14.3433 23.5033C14.3433 18.3774 14.2593 14.9437 8.3238 14.9437C4.37016 14.9437 2.77796 16.4702 2.77796 18.5033C2.79475 21.1721 5.41819 21.8543 9.76148 22.5728Z" fill="#212122"/>
<path d="M103.083 10.9271C100.293 10.9271 97.5654 11.7428 95.2453 13.2709C92.9252 14.7991 91.117 16.9711 90.0491 19.5123C88.9813 22.0535 88.7019 24.8498 89.2463 27.5476C89.7907 30.2453 91.1343 32.7234 93.1074 34.6683C95.0805 36.6133 97.5943 37.9379 100.331 38.4745C103.068 39.0111 105.904 38.7357 108.482 37.6831C111.06 36.6305 113.264 34.8479 114.814 32.5609C116.364 30.2738 117.191 27.585 117.191 24.8344C117.191 23.0081 116.827 21.1996 116.118 19.5123C115.409 17.825 114.369 16.2919 113.059 15.0005C111.749 13.7091 110.194 12.6847 108.482 11.9858C106.771 11.2868 104.936 10.9271 103.083 10.9271ZM103.497 38.4106H103.083C99.4307 38.4106 95.9277 36.9802 93.3449 34.4342C90.7621 31.8882 89.3111 28.435 89.3111 24.8344C89.3111 21.2338 90.7621 17.7806 93.3449 15.2346C95.9277 12.6886 99.4307 11.2582 103.083 11.2582H103.497C106.63 11.9446 109.433 13.6639 111.441 16.1322C113.45 18.6004 114.544 21.6701 114.544 24.8344C114.544 27.9987 113.45 31.0684 111.441 33.5367C109.433 36.0049 106.63 37.7242 103.497 38.4106Z" fill="#77F1DF"/>
<path d="M99.2506 20.2517V21.9073C98.5858 22.2223 98.0476 22.7482 97.7223 23.4007H96.0427C96.2801 22.6602 96.6954 21.9872 97.2534 21.4389C97.8113 20.8907 98.4953 20.4834 99.2473 20.2517H99.2506Z" fill="#212122"/>
<path d="M99.2507 27.8146V29.4702C98.4979 29.2371 97.8134 28.8281 97.2555 28.2781C96.6975 27.7281 96.2826 27.0534 96.0461 26.3113H97.7257C98.0501 26.9658 98.5868 27.4948 99.2507 27.8146Z" fill="#212122"/>
<path d="M102.257 29.4702V27.8145C102.926 27.5014 103.468 26.9753 103.796 26.3212H105.475C105.238 27.0638 104.821 27.7385 104.26 28.287C103.7 28.8356 103.012 29.2416 102.257 29.4702Z" fill="#212122"/>
<path d="M105.428 23.3808H103.749C103.427 22.7259 102.892 22.1957 102.23 21.8741V20.2185C102.982 20.4526 103.665 20.8624 104.221 21.413C104.778 21.9637 105.19 22.6388 105.425 23.3808H105.428Z" fill="#212122"/>
<path d="M119.879 7.78474L116.856 10.9271C113.88 8.11586 109.042 4.70527 102.879 4.38076C101.967 4.33714 101.053 4.35816 100.144 4.44368L99.7244 0.109239C100.854 -0.000470684 101.99 -0.0270343 103.124 0.029769C110.608 0.463544 116.359 4.47348 119.879 7.78474Z" fill="#212122"/>
<path fill-rule="evenodd" clip-rule="evenodd" d="M103.083 10.5961C100.227 10.5961 97.4341 11.4311 95.0588 12.9957C92.6835 14.5602 90.8321 16.7839 89.7389 19.3857C88.6457 21.9874 88.3596 24.8503 88.917 27.6123C89.4743 30.3742 90.8499 32.9113 92.87 34.9026C94.89 36.8938 97.4637 38.2499 100.266 38.7993C103.067 39.3487 105.972 39.0667 108.611 37.9891C111.25 36.9114 113.506 35.0864 115.093 32.7449C116.68 30.4034 117.527 27.6506 117.527 24.8345C117.527 21.0582 116.006 17.4366 113.297 14.7664C110.588 12.0962 106.914 10.5961 103.083 10.5961ZM103.497 38.4106H103.083C99.4308 38.4106 95.9278 36.9803 93.345 34.4343C90.7622 31.8883 89.3112 28.4351 89.3112 24.8345C89.3112 21.2339 90.7622 17.7807 93.345 15.2347C95.9278 12.6887 99.4308 11.2583 103.083 11.2583H103.497C106.63 11.9447 109.433 13.664 111.441 16.1322C113.45 18.6005 114.544 21.6702 114.544 24.8345C114.544 27.9988 113.45 31.0685 111.441 33.5367C109.433 36.005 106.63 37.7243 103.497 38.4106Z" fill="#212122"/>
<path d="M69.8285 10.9271C67.0382 10.9271 64.3105 11.7428 61.9904 13.2709C59.6703 14.7991 57.8621 16.9711 56.7943 19.5123C55.7265 22.0535 55.4471 24.8498 55.9914 27.5476C56.5358 30.2453 57.8795 32.7234 59.8525 34.6683C61.8256 36.6133 64.3394 37.9379 67.0761 38.4745C69.8128 39.0111 72.6495 38.7357 75.2274 37.6831C77.8053 36.6305 80.0087 34.8479 81.559 32.5609C83.1092 30.2738 83.9366 27.585 83.9366 24.8344C83.9366 21.146 82.4502 17.6086 79.8044 15.0005C77.1586 12.3924 73.5702 10.9271 69.8285 10.9271ZM70.2416 38.4106H69.8285C66.1759 38.4106 62.6728 36.9802 60.09 34.4342C57.5073 31.8882 56.0563 28.435 56.0563 24.8344C56.0563 21.2338 57.5073 17.7806 60.09 15.2346C62.6728 12.6886 66.1759 11.2582 69.8285 11.2582H70.2416C73.3752 11.9446 76.1776 13.6639 78.1862 16.1322C80.1948 18.6004 81.2895 21.6701 81.2895 24.8344C81.2895 27.9987 80.1948 31.0684 78.1862 33.5367C76.1776 36.0049 73.3752 37.7242 70.2416 38.4106Z" fill="#77F1DF"/>
<path d="M65.9958 20.2517V21.9073C65.331 22.2223 64.7927 22.7482 64.4674 23.4007H62.7878C63.0252 22.6602 63.4405 21.9872 63.9985 21.4389C64.5564 20.8907 65.2405 20.4834 65.9924 20.2517H65.9958Z" fill="#212122"/>
<path d="M65.9958 27.8146V29.4702C65.243 29.2371 64.5585 28.8281 64.0006 28.2781C63.4426 27.7281 63.0277 27.0534 62.7913 26.3113H64.4708C64.7952 26.9658 65.3319 27.4948 65.9958 27.8146Z" fill="#212122"/>
<path d="M69.0022 29.4702V27.8145C69.6708 27.5014 70.2127 26.9753 70.5407 26.3212H72.2202C71.9828 27.0638 71.5659 27.7385 71.0053 28.287C70.4447 28.8356 69.7573 29.2416 69.0022 29.4702Z" fill="#212122"/>
<path d="M72.1732 23.3808H70.4936C70.1718 22.7259 69.6375 22.1957 68.9753 21.8741V20.2185C69.727 20.4526 70.4102 20.8624 70.9664 21.413C71.5227 21.9637 71.9355 22.6388 72.1698 23.3808H72.1732Z" fill="#212122"/>
<path d="M53.0331 7.78477L56.0563 10.9272C59.0324 8.11589 63.8695 4.7053 70.0334 4.3808C70.9452 4.3372 71.8589 4.35823 72.7677 4.44371L73.1876 0.109273C72.0613 5.63411e-05 70.9284 -0.0265069 69.7982 0.0298028C62.3041 0.463578 56.5534 4.47351 53.0331 7.78477Z" fill="#212122"/>
<path fill-rule="evenodd" clip-rule="evenodd" d="M69.8286 10.5961C66.9718 10.5961 64.1792 11.4311 61.8039 12.9957C59.4286 14.5602 57.5772 16.7839 56.484 19.3857C55.3908 21.9874 55.1047 24.8503 55.6621 27.6123C56.2194 30.3742 57.5951 32.9113 59.6151 34.9026C61.6351 36.8938 64.2088 38.2499 67.0107 38.7993C69.8125 39.3487 72.7168 39.0667 75.3561 37.9891C77.9954 36.9114 80.2512 35.0864 81.8383 32.7449C83.4255 30.4034 84.2726 27.6506 84.2726 24.8345C84.2726 21.0582 82.7508 17.4366 80.042 14.7664C77.3333 12.0962 73.6594 10.5961 69.8286 10.5961ZM70.2417 38.4106H69.8286C66.1759 38.4106 62.6729 36.9803 60.0901 34.4343C57.5073 31.8883 56.0563 28.4351 56.0563 24.8345C56.0563 21.2339 57.5073 17.7807 60.0901 15.2347C62.6729 12.6887 66.1759 11.2583 69.8286 11.2583H70.2417C73.3753 11.9447 76.1777 13.664 78.1863 16.1322C80.1949 18.6005 81.2896 21.6702 81.2896 24.8345C81.2896 27.9988 80.1949 31.0685 78.1863 33.5367C76.1777 36.005 73.3753 37.7243 70.2417 38.4106Z" fill="#212122"/>
<path d="M138.962 24.904L145.368 14.9437H144.551L138.229 24.7748C136.123 24.4437 133.93 24.5629 131.824 24.5629V4.60266H127.739V34.1656C115.645 41.8908 101.541 46.0014 87.1295 46.0014C72.718 46.0014 58.6144 41.8908 46.5199 34.1656V26.3444C46.5199 20.1556 45.1763 14.2219 37.7057 14.2219C31.1689 14.2384 28.8478 22.0199 27.9442 27.2782V4.60266H23.8495V36.0927H27.9442C27.9442 29.947 29.1468 14.9437 37.746 14.9437C40.3258 14.9437 42.3916 16.4702 42.3916 21.0894V36.0927L42.62 36.4239C55.725 45.2774 71.2405 50.0155 87.1278 50.0155C103.015 50.0155 118.531 45.2774 131.636 36.4239L131.824 36.0927V25.1159H135.478C142.788 25.1159 142.788 30.5397 142.788 36.0927H147C147 30.2848 145.196 26.1755 138.962 24.904Z" fill="#212122"/>
</g>
<defs>
<clipPath id="clip0_10_3363">
<rect width="147" height="50" fill="white"/>
</clipPath>
</defs>
</svg>
